<?xml version="1.0" encoding="UTF-8" standalone="no"?>
<!DOCTYPE svg PUBLIC "-//W3C//DTD SVG 1.1//EN"
 "http://www.w3.org/Graphics/SVG/1.1/DTD/svg11.dtd">
<!-- Generated by graphviz version 2.40.1 (20161225.0304)
 -->
<!-- Title: %3 Pages: 1 -->
<svg width="922pt" height="755pt"
 viewBox="0.00 0.00 922.00 755.00" xmlns="http://www.w3.org/2000/svg" xmlns:xlink="http://www.w3.org/1999/xlink">
<g id="graph0" class="graph" transform="scale(1 1) rotate(0) translate(4 751)">
<title>%3</title>
<polygon fill="#ffffff" stroke="transparent" points="-4,4 -4,-751 918,-751 918,4 -4,4"/>
<text text-anchor="start" x="269.5" y="-709.4" font-family="Times,serif" font-size="42.00" fill="#000000">Interrupt Initialisation</text>
<g id="clust1" class="cluster">
<title>cluster_init_digital_input</title>
<polygon fill="none" stroke="#000000" points="410,-599 410,-685 696,-685 696,-599 410,-599"/>
<text text-anchor="middle" x="553" y="-663.4" font-family="Times,serif" font-size="22.00" fill="#000000">initialise_digital_input()</text>
</g>
<g id="clust2" class="cluster">
<title>cluster_module_setup_interrupt</title>
<polygon fill="none" stroke="#000000" points="8,-8 8,-580 906,-580 906,-8 8,-8"/>
<text text-anchor="middle" x="457" y="-558.4" font-family="Times,serif" font-size="22.00" fill="#000000">module.setup_interrupt()</text>
</g>
<!-- calls_setup_interrupt -->
<g id="node1" class="node">
<title>calls_setup_interrupt</title>
<path fill="none" stroke="#000000" d="M675.5,-645C675.5,-645 430.5,-645 430.5,-645 424.5,-645 418.5,-639 418.5,-633 418.5,-633 418.5,-619 418.5,-619 418.5,-613 424.5,-607 430.5,-607 430.5,-607 675.5,-607 675.5,-607 681.5,-607 687.5,-613 687.5,-619 687.5,-619 687.5,-633 687.5,-633 687.5,-639 681.5,-645 675.5,-645"/>
<text text-anchor="middle" x="553" y="-629.8" font-family="Times,serif" font-size="14.00" fill="#000000">Call gpio module&#39;s setup_interrupt() method</text>
<text text-anchor="middle" x="553" y="-614.8" font-family="Times,serif" font-size="14.00" fill="#000000">for a specific pin, passing in callback function</text>
</g>
<!-- q_software_callback -->
<g id="node2" class="node">
<title>q_software_callback</title>
<ellipse fill="none" stroke="#000000" cx="553" cy="-522" rx="200.6645" ry="18"/>
<text text-anchor="middle" x="553" y="-518.3" font-family="Times,serif" font-size="14.00" fill="#000000">GPIO hardware&#39;s library supports software callbacks?</text>
</g>
<!-- calls_setup_interrupt&#45;&gt;q_software_callback -->
<g id="edge1" class="edge">
<title>calls_setup_interrupt&#45;&gt;q_software_callback</title>
<path fill="none" stroke="#000000" d="M553,-606.9248C553,-591.1166 553,-568.412 553,-550.4555"/>
<polygon fill="#000000" stroke="#000000" points="556.5001,-550.2567 553,-540.2568 549.5001,-550.2568 556.5001,-550.2567"/>
</g>
<!-- q_interrupt_pin -->
<g id="node3" class="node">
<title>q_interrupt_pin</title>
<polygon fill="none" stroke="#000000" points="329,-414 15.6347,-396 329,-378 642.3653,-396 329,-414"/>
<text text-anchor="middle" x="329" y="-392.3" font-family="Times,serif" font-size="14.00" fill="#000000">GPIO hardware outputs on dedicated pin(s) upon interrupt?</text>
</g>
<!-- q_software_callback&#45;&gt;q_interrupt_pin -->
<g id="edge3" class="edge">
<title>q_software_callback&#45;&gt;q_interrupt_pin</title>
<path fill="none" stroke="#000000" d="M521.3814,-504.2145C480.8494,-481.4153 410.6325,-441.9183 367.1684,-417.4697"/>
<polygon fill="#000000" stroke="#000000" points="368.7517,-414.3447 358.32,-412.4925 365.3199,-420.4457 368.7517,-414.3447"/>
<text text-anchor="middle" x="462.5" y="-455.8" font-family="Times,serif" font-size="14.00" fill="#000000">No</text>
</g>
<!-- config_software_callback -->
<g id="node5" class="node">
<title>config_software_callback</title>
<path fill="none" stroke="#000000" d="M885.5,-415C885.5,-415 672.5,-415 672.5,-415 666.5,-415 660.5,-409 660.5,-403 660.5,-403 660.5,-389 660.5,-389 660.5,-383 666.5,-377 672.5,-377 672.5,-377 885.5,-377 885.5,-377 891.5,-377 897.5,-383 897.5,-389 897.5,-389 897.5,-403 897.5,-403 897.5,-409 891.5,-415 885.5,-415"/>
<text text-anchor="middle" x="779" y="-399.8" font-family="Times,serif" font-size="14.00" fill="#000000">Add gpio_module.interrupt_handler() as</text>
<text text-anchor="middle" x="779" y="-384.8" font-family="Times,serif" font-size="14.00" fill="#000000">callback when configuring pin interrupt</text>
</g>
<!-- q_software_callback&#45;&gt;config_software_callback -->
<g id="edge2" class="edge">
<title>q_software_callback&#45;&gt;config_software_callback</title>
<path fill="none" stroke="#000000" d="M584.9009,-504.2145C624.4005,-482.1926 691.8427,-444.5921 735.9135,-420.0216"/>
<polygon fill="#000000" stroke="#000000" points="737.6427,-423.0649 744.6726,-415.1383 734.2339,-416.9509 737.6427,-423.0649"/>
<text text-anchor="middle" x="688" y="-455.8" font-family="Times,serif" font-size="14.00" fill="#000000">Yes</text>
</g>
<!-- q_set_triggers -->
<g id="node4" class="node">
<title>q_set_triggers</title>
<polygon fill="none" stroke="#000000" points="357,-288 15.9853,-270 357,-252 698.0147,-270 357,-288"/>
<text text-anchor="middle" x="357" y="-266.3" font-family="Times,serif" font-size="14.00" fill="#000000">Can configure GPIO hardware to interrupt on specific pins only?</text>
</g>
<!-- q_interrupt_pin&#45;&gt;q_set_triggers -->
<g id="edge5" class="edge">
<title>q_interrupt_pin&#45;&gt;q_set_triggers</title>
<path fill="none" stroke="#000000" d="M332.9523,-378.2145C337.5953,-357.3211 345.3545,-322.4047 350.8006,-297.8975"/>
<polygon fill="#000000" stroke="#000000" points="354.2244,-298.6242 352.9771,-288.103 347.3911,-297.1056 354.2244,-298.6242"/>
<text text-anchor="middle" x="355" y="-328.8" font-family="Times,serif" font-size="14.00" fill="#000000">Yes</text>
</g>
<!-- ints_not_supported -->
<g id="node9" class="node">
<title>ints_not_supported</title>
<path fill="none" stroke="#000000" d="M851.5,-288C851.5,-288 728.5,-288 728.5,-288 722.5,-288 716.5,-282 716.5,-276 716.5,-276 716.5,-264 716.5,-264 716.5,-258 722.5,-252 728.5,-252 728.5,-252 851.5,-252 851.5,-252 857.5,-252 863.5,-258 863.5,-264 863.5,-264 863.5,-276 863.5,-276 863.5,-282 857.5,-288 851.5,-288"/>
<text text-anchor="middle" x="790" y="-266.3" font-family="Times,serif" font-size="14.00" fill="#000000">Interrupts not supported</text>
</g>
<!-- q_interrupt_pin&#45;&gt;ints_not_supported -->
<g id="edge4" class="edge">
<title>q_interrupt_pin&#45;&gt;ints_not_supported</title>
<path fill="none" stroke="#000000" d="M383.6931,-381.0514C465.7306,-358.629 620.9189,-316.2131 713.9452,-290.7872"/>
<polygon fill="#000000" stroke="#000000" points="715.1365,-294.0901 723.8599,-288.0773 713.2909,-287.3377 715.1365,-294.0901"/>
<text text-anchor="middle" x="594.5" y="-328.8" font-family="Times,serif" font-size="14.00" fill="#000000">No</text>
</g>
<!-- enable_int_all_pins -->
<g id="node6" class="node">
<title>enable_int_all_pins</title>
<path fill="none" stroke="#000000" d="M305,-163C305,-163 87,-163 87,-163 81,-163 75,-157 75,-151 75,-151 75,-139 75,-139 75,-133 81,-127 87,-127 87,-127 305,-127 305,-127 311,-127 317,-133 317,-139 317,-139 317,-151 317,-151 317,-157 311,-163 305,-163"/>
<text text-anchor="middle" x="196" y="-141.3" font-family="Times,serif" font-size="14.00" fill="#000000">Enable interrupts (if required) for all pins</text>
</g>
<!-- q_set_triggers&#45;&gt;enable_int_all_pins -->
<g id="edge6" class="edge">
<title>q_set_triggers&#45;&gt;enable_int_all_pins</title>
<path fill="none" stroke="#000000" d="M335.2868,-253.1419C307.4735,-231.5477 259.0736,-193.9702 227.2864,-169.2907"/>
<polygon fill="#000000" stroke="#000000" points="229.2345,-166.3721 219.1892,-163.0041 224.9416,-171.9013 229.2345,-166.3721"/>
<text text-anchor="middle" x="292.5" y="-203.8" font-family="Times,serif" font-size="14.00" fill="#000000">No</text>
</g>
<!-- enable_int_pin -->
<g id="node7" class="node">
<title>enable_int_pin</title>
<path fill="none" stroke="#000000" d="M496.5,-163C496.5,-163 347.5,-163 347.5,-163 341.5,-163 335.5,-157 335.5,-151 335.5,-151 335.5,-139 335.5,-139 335.5,-133 341.5,-127 347.5,-127 347.5,-127 496.5,-127 496.5,-127 502.5,-127 508.5,-133 508.5,-139 508.5,-139 508.5,-151 508.5,-151 508.5,-157 502.5,-163 496.5,-163"/>
<text text-anchor="middle" x="422" y="-141.3" font-family="Times,serif" font-size="14.00" fill="#000000">Enable interrupts for this pin</text>
</g>
<!-- q_set_triggers&#45;&gt;enable_int_pin -->
<g id="edge7" class="edge">
<title>q_set_triggers&#45;&gt;enable_int_pin</title>
<path fill="none" stroke="#000000" d="M366.1751,-252.3557C376.9879,-231.5618 395.0811,-196.7672 407.7295,-172.4433"/>
<polygon fill="#000000" stroke="#000000" points="410.9405,-173.8545 412.4489,-163.3676 404.73,-170.625 410.9405,-173.8545"/>
<text text-anchor="middle" x="403" y="-203.8" font-family="Times,serif" font-size="14.00" fill="#000000">Yes</text>
</g>
<!-- store_callback -->
<g id="node8" class="node">
<title>store_callback</title>
<path fill="none" stroke="#000000" d="M453,-52C453,-52 99,-52 99,-52 93,-52 87,-46 87,-40 87,-40 87,-28 87,-28 87,-22 93,-16 99,-16 99,-16 453,-16 453,-16 459,-16 465,-22 465,-28 465,-28 465,-40 465,-40 465,-46 459,-52 453,-52"/>
<text text-anchor="middle" x="276" y="-30.3" font-family="Times,serif" font-size="14.00" fill="#000000">Store supplied callback for this pin in self.interrupt_callbacks[pin]</text>
</g>
<!-- enable_int_all_pins&#45;&gt;store_callback -->
<g id="edge8" class="edge">
<title>enable_int_all_pins&#45;&gt;store_callback</title>
<path fill="none" stroke="#000000" d="M209.2104,-126.6706C222.1802,-108.6749 242.1047,-81.0298 256.8185,-60.6143"/>
<polygon fill="#000000" stroke="#000000" points="259.7625,-62.5156 262.77,-52.3566 254.0837,-58.4228 259.7625,-62.5156"/>
</g>
<!-- enable_int_pin&#45;&gt;store_callback -->
<g id="edge9" class="edge">
<title>enable_int_pin&#45;&gt;store_callback</title>
<path fill="none" stroke="#000000" d="M398.2176,-126.9189C373.6133,-108.2129 335.0463,-78.8914 307.8272,-58.1974"/>
<polygon fill="#000000" stroke="#000000" points="309.8511,-55.3394 299.7722,-52.0734 305.6145,-60.9118 309.8511,-55.3394"/>
</g>
</g>
</svg>
