<?xml version="1.0" encoding="UTF-8" standalone="no"?>
<!DOCTYPE svg PUBLIC "-//W3C//DTD SVG 1.1//EN"
 "http://www.w3.org/Graphics/SVG/1.1/DTD/svg11.dtd">
<!-- Generated by graphviz version 2.40.1 (20161225.0304)
 -->
<!-- Title: %3 Pages: 1 -->
<svg width="1939pt" height="2221pt"
 viewBox="0.00 0.00 1939.00 2221.00" xmlns="http://www.w3.org/2000/svg" xmlns:xlink="http://www.w3.org/1999/xlink">
<g id="graph0" class="graph" transform="scale(1 1) rotate(0) translate(4 2217)">
<title>%3</title>
<polygon fill="#ffffff" stroke="transparent" points="-4,4 -4,-2217 1935,-2217 1935,4 -4,4"/>
<text text-anchor="start" x="807.5" y="-2176.4" font-family="Times,serif" font-size="42.00" fill="#000000">Interrupt Handling</text>
<text text-anchor="start" x="733.5" y="-2150.4" font-family="Times,serif" font-size="22.00" fill="#000000">For GPIO libraries with software interrupt callbacks,</text>
<text text-anchor="start" x="710.5" y="-2128.4" font-family="Times,serif" font-size="22.00" fill="#000000">and how they handle being an interrupt for other modules</text>
<g id="clust1" class="cluster">
<title>cluster_main_int_callback</title>
<polygon fill="none" stroke="#000000" points="8,-1399 8,-1837 697,-1837 697,-1399 8,-1399"/>
<text text-anchor="start" x="230.5" y="-1815.4" font-family="Times,serif" font-size="22.00" fill="#000000">MqttIo.interrupt_callback()</text>
</g>
<g id="clust2" class="cluster">
<title>cluster_handle_remote_int</title>
<polygon fill="none" stroke="#000000" points="705,-8 705,-1483 1307,-1483 1307,-8 705,-8"/>
<text text-anchor="start" x="855" y="-1461.4" font-family="Times,serif" font-size="22.00" fill="#000000">MqttIo.handle_remote_interrupt()</text>
</g>
<g id="clust3" class="cluster">
<title>cluster_handle_remote_int_closure_func</title>
<polygon fill="none" stroke="#000000" points="969,-89 969,-983 1299,-983 1299,-89 969,-89"/>
<text text-anchor="start" x="993" y="-961.4" font-family="Times,serif" font-size="22.00" fill="#000000">handle_remote_interrupt_task()</text>
</g>
<g id="clust4" class="cluster">
<title>cluster_await_remote_ints</title>
<polygon fill="none" stroke="#000000" points="713,-16 713,-1086 961,-1086 961,-16 713,-16"/>
<text text-anchor="start" x="721" y="-1064.4" font-family="Times,serif" font-size="22.00" fill="#000000">await_remote_interrupts()</text>
</g>
<g id="clust5" class="cluster">
<title>cluster_get_int_pin_values</title>
<polygon fill="none" stroke="#000000" points="1315,-162 1315,-880 1923,-880 1923,-162 1315,-162"/>
<text text-anchor="start" x="1402.5" y="-858.4" font-family="Times,serif" font-size="22.00" fill="#000000">GenericGPIO.get_interrupt_values_remote(pins)</text>
</g>
<!-- mcp_gpio_input -->
<g id="node1" class="node">
<title>mcp_gpio_input</title>
<path fill="none" stroke="#000000" d="M515,-2119C515,-2119 333,-2119 333,-2119 327,-2119 321,-2113 321,-2107 321,-2107 321,-2095 321,-2095 321,-2089 327,-2083 333,-2083 333,-2083 515,-2083 515,-2083 521,-2083 527,-2089 527,-2095 527,-2095 527,-2107 527,-2107 527,-2113 521,-2119 515,-2119"/>
<text text-anchor="middle" x="424" y="-2097.3" font-family="Times,serif" font-size="14.00" fill="#000000">MCP input pin logic level changes</text>
</g>
<!-- mcp_int_output -->
<g id="node2" class="node">
<title>mcp_int_output</title>
<path fill="none" stroke="#000000" d="M543.5,-2046C543.5,-2046 304.5,-2046 304.5,-2046 298.5,-2046 292.5,-2040 292.5,-2034 292.5,-2034 292.5,-2022 292.5,-2022 292.5,-2016 298.5,-2010 304.5,-2010 304.5,-2010 543.5,-2010 543.5,-2010 549.5,-2010 555.5,-2016 555.5,-2022 555.5,-2022 555.5,-2034 555.5,-2034 555.5,-2040 549.5,-2046 543.5,-2046"/>
<text text-anchor="middle" x="424" y="-2024.3" font-family="Times,serif" font-size="14.00" fill="#000000">MCP interrupt output pin logic level changes</text>
</g>
<!-- mcp_gpio_input&#45;&gt;mcp_int_output -->
<g id="edge1" class="edge">
<title>mcp_gpio_input&#45;&gt;mcp_int_output</title>
<path fill="none" stroke="#000000" d="M424,-2082.9551C424,-2074.8828 424,-2065.1764 424,-2056.1817"/>
<polygon fill="#000000" stroke="#000000" points="427.5001,-2056.0903 424,-2046.0904 420.5001,-2056.0904 427.5001,-2056.0903"/>
</g>
<!-- pi_gpio_input -->
<g id="node3" class="node">
<title>pi_gpio_input</title>
<path fill="none" stroke="#000000" d="M506,-1973C506,-1973 342,-1973 342,-1973 336,-1973 330,-1967 330,-1961 330,-1961 330,-1949 330,-1949 330,-1943 336,-1937 342,-1937 342,-1937 506,-1937 506,-1937 512,-1937 518,-1943 518,-1949 518,-1949 518,-1961 518,-1961 518,-1967 512,-1973 506,-1973"/>
<text text-anchor="middle" x="424" y="-1951.3" font-family="Times,serif" font-size="14.00" fill="#000000">Pi input pin logic level changes</text>
</g>
<!-- mcp_int_output&#45;&gt;pi_gpio_input -->
<g id="edge2" class="edge">
<title>mcp_int_output&#45;&gt;pi_gpio_input</title>
<path fill="none" stroke="#000000" d="M424,-2009.9551C424,-2001.8828 424,-1992.1764 424,-1983.1817"/>
<polygon fill="#000000" stroke="#000000" points="427.5001,-1983.0903 424,-1973.0904 420.5001,-1983.0904 427.5001,-1983.0903"/>
</g>
<!-- pi_int_callback -->
<g id="node4" class="node">
<title>pi_int_callback</title>
<path fill="none" stroke="#000000" d="M508,-1900C508,-1900 340,-1900 340,-1900 334,-1900 328,-1894 328,-1888 328,-1888 328,-1876 328,-1876 328,-1870 334,-1864 340,-1864 340,-1864 508,-1864 508,-1864 514,-1864 520,-1870 520,-1876 520,-1876 520,-1888 520,-1888 520,-1894 514,-1900 508,-1900"/>
<text text-anchor="middle" x="424" y="-1878.3" font-family="Times,serif" font-size="14.00" fill="#000000">Pi interrupt callback is triggered</text>
</g>
<!-- pi_gpio_input&#45;&gt;pi_int_callback -->
<g id="edge3" class="edge">
<title>pi_gpio_input&#45;&gt;pi_int_callback</title>
<path fill="none" stroke="#000000" d="M424,-1936.9551C424,-1928.8828 424,-1919.1764 424,-1910.1817"/>
<polygon fill="#000000" stroke="#000000" points="427.5001,-1910.0903 424,-1900.0904 420.5001,-1910.0904 427.5001,-1910.0903"/>
</g>
<!-- main_int_callback -->
<g id="node7" class="node">
<title>main_int_callback</title>
<path fill="none" stroke="#000000" d="M524.5,-1797C524.5,-1797 323.5,-1797 323.5,-1797 317.5,-1797 311.5,-1791 311.5,-1785 311.5,-1785 311.5,-1771 311.5,-1771 311.5,-1765 317.5,-1759 323.5,-1759 323.5,-1759 524.5,-1759 524.5,-1759 530.5,-1759 536.5,-1765 536.5,-1771 536.5,-1771 536.5,-1785 536.5,-1785 536.5,-1791 530.5,-1797 524.5,-1797"/>
<text text-anchor="middle" x="424" y="-1781.8" font-family="Times,serif" font-size="14.00" fill="#000000">Gets called by module&#39;s software</text>
<text text-anchor="middle" x="424" y="-1766.8" font-family="Times,serif" font-size="14.00" fill="#000000">callback with whichever args supplied</text>
</g>
<!-- pi_int_callback&#45;&gt;main_int_callback -->
<g id="edge4" class="edge">
<title>pi_int_callback&#45;&gt;main_int_callback</title>
<path fill="none" stroke="#000000" d="M424,-1863.8846C424,-1848.317 424,-1825.5728 424,-1807.4004"/>
<polygon fill="#000000" stroke="#000000" points="427.5001,-1807.3178 424,-1797.3179 420.5001,-1807.3179 427.5001,-1807.3178"/>
</g>
<!-- q_is_remote_int -->
<g id="node5" class="node">
<title>q_is_remote_int</title>
<path fill="none" stroke="#000000" d="M269.0276,-1634.1866C269.0276,-1634.1866 28.0376,-1617.8134 28.0376,-1617.8134 22.0514,-1617.4067 22.0514,-1616.5933 28.0376,-1616.1866 28.0376,-1616.1866 269.0276,-1599.8134 269.0276,-1599.8134 275.0138,-1599.4067 286.9862,-1599.4067 292.9724,-1599.8134 292.9724,-1599.8134 533.9624,-1616.1866 533.9624,-1616.1866 539.9486,-1616.5933 539.9486,-1617.4067 533.9624,-1617.8134 533.9624,-1617.8134 292.9724,-1634.1866 292.9724,-1634.1866 286.9862,-1634.5933 275.0138,-1634.5933 269.0276,-1634.1866"/>
<text text-anchor="middle" x="281" y="-1613.3" font-family="Times,serif" font-size="14.00" fill="#000000">Configured as interrupt for other module&#39;s pin(s)?</text>
</g>
<!-- get_all_interrupt_for_pins -->
<g id="node10" class="node">
<title>get_all_interrupt_for_pins</title>
<path fill="none" stroke="#000000" d="M676.5,-1547C676.5,-1547 365.5,-1547 365.5,-1547 359.5,-1547 353.5,-1541 353.5,-1535 353.5,-1535 353.5,-1523 353.5,-1523 353.5,-1517 359.5,-1511 365.5,-1511 365.5,-1511 676.5,-1511 676.5,-1511 682.5,-1511 688.5,-1517 688.5,-1523 688.5,-1523 688.5,-1535 688.5,-1535 688.5,-1541 682.5,-1547 676.5,-1547"/>
<text text-anchor="middle" x="521" y="-1525.3" font-family="Times,serif" font-size="14.00" fill="#000000">Get list of pin names that this pin_name is an interrupt for</text>
</g>
<!-- q_is_remote_int&#45;&gt;get_all_interrupt_for_pins -->
<g id="edge8" class="edge">
<title>q_is_remote_int&#45;&gt;get_all_interrupt_for_pins</title>
<path fill="none" stroke="#000000" d="M322.5308,-1601.772C361.0721,-1587.6402 418.8443,-1566.4571 462.1339,-1550.5842"/>
<polygon fill="#000000" stroke="#000000" points="463.509,-1553.808 471.6928,-1547.0793 461.0991,-1547.2358 463.509,-1553.808"/>
<text text-anchor="middle" x="427" y="-1569.8" font-family="Times,serif" font-size="14.00" fill="#000000">Yes</text>
</g>
<!-- get_interrupt_value -->
<g id="node11" class="node">
<title>get_interrupt_value</title>
<path fill="none" stroke="#000000" d="M323.5,-1548C323.5,-1548 76.5,-1548 76.5,-1548 70.5,-1548 64.5,-1542 64.5,-1536 64.5,-1536 64.5,-1522 64.5,-1522 64.5,-1516 70.5,-1510 76.5,-1510 76.5,-1510 323.5,-1510 323.5,-1510 329.5,-1510 335.5,-1516 335.5,-1522 335.5,-1522 335.5,-1536 335.5,-1536 335.5,-1542 329.5,-1548 323.5,-1548"/>
<text text-anchor="middle" x="200" y="-1532.8" font-family="Times,serif" font-size="14.00" fill="#000000">Get value of pin that caused the interrupt</text>
<text text-anchor="middle" x="200" y="-1517.8" font-family="Times,serif" font-size="14.00" fill="#000000">using [module].GPIO.get_interrupt_value(pin)</text>
</g>
<!-- q_is_remote_int&#45;&gt;get_interrupt_value -->
<g id="edge17" class="edge">
<title>q_is_remote_int&#45;&gt;get_interrupt_value</title>
<path fill="none" stroke="#000000" d="M265.3824,-1600.0327C253.8233,-1587.4747 237.8491,-1570.1201 224.584,-1555.7085"/>
<polygon fill="#000000" stroke="#000000" points="226.886,-1553.0414 217.5384,-1548.054 221.7356,-1557.782 226.886,-1553.0414"/>
<text text-anchor="middle" x="256.5" y="-1569.8" font-family="Times,serif" font-size="14.00" fill="#000000">No</text>
</g>
<!-- q_acquire_interrupt_lock -->
<g id="node6" class="node">
<title>q_acquire_interrupt_lock</title>
<path fill="none" stroke="#000000" d="M412.0535,-1720.8684C412.0535,-1720.8684 245.9151,-1705.1316 245.9151,-1705.1316 239.9419,-1704.5658 239.9419,-1703.4342 245.9151,-1702.8684 245.9151,-1702.8684 412.0535,-1687.1316 412.0535,-1687.1316 418.0267,-1686.5658 429.9733,-1686.5658 435.9465,-1687.1316 435.9465,-1687.1316 602.0849,-1702.8684 602.0849,-1702.8684 608.0581,-1703.4342 608.0581,-1704.5658 602.0849,-1705.1316 602.0849,-1705.1316 435.9465,-1720.8684 435.9465,-1720.8684 429.9733,-1721.4342 418.0267,-1721.4342 412.0535,-1720.8684"/>
<text text-anchor="middle" x="424" y="-1700.3" font-family="Times,serif" font-size="14.00" fill="#000000">Acquire lock for this interrupt pin?</text>
</g>
<!-- q_acquire_interrupt_lock&#45;&gt;q_is_remote_int -->
<g id="edge6" class="edge">
<title>q_acquire_interrupt_lock&#45;&gt;q_is_remote_int</title>
<path fill="none" stroke="#000000" d="M398.1038,-1688.245C375.2087,-1674.3158 341.6068,-1653.8727 316.2624,-1638.4533"/>
<polygon fill="#000000" stroke="#000000" points="318.0355,-1635.4353 307.6732,-1633.2277 314.3972,-1641.4155 318.0355,-1635.4353"/>
<text text-anchor="middle" x="387.5" y="-1656.8" font-family="Times,serif" font-size="14.00" fill="#000000">Acquired</text>
</g>
<!-- ignore_interrupt -->
<g id="node8" class="node">
<title>ignore_interrupt</title>
<polygon fill="#d3d3d3" stroke="#000000" stroke-width=".5" points="563.5,-1599 688.5,-1599 688.5,-1635 563.5,-1635 563.5,-1599"/>
<polygon fill="none" stroke="#000000" points="688.5,-1635 563.5,-1635 563.5,-1599 688.5,-1599 688.5,-1635"/>
<text text-anchor="middle" x="626" y="-1613.3" font-family="Times,serif" font-size="14.00" fill="#000000">Ignore this interrupt</text>
</g>
<!-- q_acquire_interrupt_lock&#45;&gt;ignore_interrupt -->
<g id="edge7" class="edge">
<title>q_acquire_interrupt_lock&#45;&gt;ignore_interrupt</title>
<path fill="none" stroke="#000000" d="M458.2665,-1689.2416C490.0916,-1675.5348 537.917,-1654.9367 574.3667,-1639.2381"/>
<polygon fill="#000000" stroke="#000000" points="576.0464,-1642.3255 583.8463,-1635.1553 573.2774,-1635.8965 576.0464,-1642.3255"/>
<text text-anchor="middle" x="558.5" y="-1656.8" font-family="Times,serif" font-size="14.00" fill="#000000">Locked</text>
</g>
<!-- main_int_callback&#45;&gt;q_acquire_interrupt_lock -->
<g id="edge5" class="edge">
<title>main_int_callback&#45;&gt;q_acquire_interrupt_lock</title>
<path fill="none" stroke="#000000" d="M424,-1758.9432C424,-1750.8174 424,-1741.1682 424,-1732.2408"/>
<polygon fill="#000000" stroke="#000000" points="427.5001,-1732.2268 424,-1722.2269 420.5001,-1732.2269 427.5001,-1732.2268"/>
</g>
<!-- fire_digital_input_changed_event_main -->
<g id="node9" class="node">
<title>fire_digital_input_changed_event_main</title>
<polygon fill="#d3d3d3" stroke="#000000" stroke-width=".5" points="106,-1407 294,-1407 294,-1443 106,-1443 106,-1407"/>
<polygon fill="none" stroke="#000000" points="294,-1443 106,-1443 106,-1407 294,-1407 294,-1443"/>
<text text-anchor="middle" x="200" y="-1421.3" font-family="Times,serif" font-size="14.00" fill="#000000">Fire DigitalInputChangedEvent</text>
</g>
<!-- organise_into_modules -->
<g id="node12" class="node">
<title>organise_into_modules</title>
<path fill="none" stroke="#000000" d="M918,-1443C918,-1443 788,-1443 788,-1443 782,-1443 776,-1437 776,-1431 776,-1431 776,-1419 776,-1419 776,-1413 782,-1407 788,-1407 788,-1407 918,-1407 918,-1407 924,-1407 930,-1413 930,-1419 930,-1419 930,-1431 930,-1431 930,-1437 924,-1443 918,-1443"/>
<text text-anchor="middle" x="853" y="-1421.3" font-family="Times,serif" font-size="14.00" fill="#000000">Organise pins by module</text>
</g>
<!-- get_all_interrupt_for_pins&#45;&gt;organise_into_modules -->
<g id="edge9" class="edge">
<title>get_all_interrupt_for_pins&#45;&gt;organise_into_modules</title>
<path fill="none" stroke="#000000" d="M599.9648,-1510.8925C631.6071,-1503.0996 668.259,-1493.3927 701,-1483 734.3779,-1472.4051 771.0782,-1458.4682 800.0535,-1446.9117"/>
<polygon fill="#000000" stroke="#000000" points="801.5918,-1450.0657 809.5679,-1443.092 798.9838,-1443.5696 801.5918,-1450.0657"/>
</g>
<!-- get_interrupt_value&#45;&gt;fire_digital_input_changed_event_main -->
<g id="edge18" class="edge">
<title>get_interrupt_value&#45;&gt;fire_digital_input_changed_event_main</title>
<path fill="none" stroke="#000000" d="M200,-1509.9248C200,-1494.1166 200,-1471.412 200,-1453.4555"/>
<polygon fill="#000000" stroke="#000000" points="203.5001,-1453.2567 200,-1443.2568 196.5001,-1453.2568 203.5001,-1453.2567"/>
</g>
<!-- make_funcs_to_get_pin_vals_and_fire_event -->
<g id="node13" class="node">
<title>make_funcs_to_get_pin_vals_and_fire_event</title>
<path fill="none" stroke="#000000" d="M1109,-1370C1109,-1370 725,-1370 725,-1370 719,-1370 713,-1364 713,-1358 713,-1358 713,-1344 713,-1344 713,-1338 719,-1332 725,-1332 725,-1332 1109,-1332 1109,-1332 1115,-1332 1121,-1338 1121,-1344 1121,-1344 1121,-1358 1121,-1358 1121,-1364 1115,-1370 1109,-1370"/>
<text text-anchor="middle" x="917" y="-1354.8" font-family="Times,serif" font-size="14.00" fill="#000000">Make async closure functions to call get_interrupt_values_remote(pins)</text>
<text text-anchor="middle" x="917" y="-1339.8" font-family="Times,serif" font-size="14.00" fill="#000000">on each module and fire events if/when the values are received</text>
</g>
<!-- organise_into_modules&#45;&gt;make_funcs_to_get_pin_vals_and_fire_event -->
<g id="edge10" class="edge">
<title>organise_into_modules&#45;&gt;make_funcs_to_get_pin_vals_and_fire_event</title>
<path fill="none" stroke="#000000" d="M868.8202,-1406.7079C876.3391,-1398.0141 885.4753,-1387.4505 893.762,-1377.8689"/>
<polygon fill="#000000" stroke="#000000" points="896.5747,-1379.9672 900.469,-1370.114 891.2802,-1375.3881 896.5747,-1379.9672"/>
</g>
<!-- add_the_functions_to_a_list -->
<g id="node14" class="node">
<title>add_the_functions_to_a_list</title>
<path fill="none" stroke="#000000" d="M985,-1295C985,-1295 839,-1295 839,-1295 833,-1295 827,-1289 827,-1283 827,-1283 827,-1271 827,-1271 827,-1265 833,-1259 839,-1259 839,-1259 985,-1259 985,-1259 991,-1259 997,-1265 997,-1271 997,-1271 997,-1283 997,-1283 997,-1289 991,-1295 985,-1295"/>
<text text-anchor="middle" x="912" y="-1273.3" font-family="Times,serif" font-size="14.00" fill="#000000">Add these functions to a list</text>
</g>
<!-- make_funcs_to_get_pin_vals_and_fire_event&#45;&gt;add_the_functions_to_a_list -->
<g id="edge11" class="edge">
<title>make_funcs_to_get_pin_vals_and_fire_event&#45;&gt;add_the_functions_to_a_list</title>
<path fill="none" stroke="#000000" d="M915.7124,-1331.9432C915.1633,-1323.8174 914.5114,-1314.1682 913.9082,-1305.2408"/>
<polygon fill="#000000" stroke="#000000" points="917.3978,-1304.9681 913.2315,-1295.2269 910.4137,-1305.4401 917.3978,-1304.9681"/>
</g>
<!-- make_func_to_await_the_funcs -->
<g id="node15" class="node">
<title>make_func_to_await_the_funcs</title>
<path fill="none" stroke="#000000" d="M1039,-1222C1039,-1222 735,-1222 735,-1222 729,-1222 723,-1216 723,-1210 723,-1210 723,-1198 723,-1198 723,-1192 729,-1186 735,-1186 735,-1186 1039,-1186 1039,-1186 1045,-1186 1051,-1192 1051,-1198 1051,-1198 1051,-1210 1051,-1210 1051,-1216 1045,-1222 1039,-1222"/>
<text text-anchor="middle" x="887" y="-1200.3" font-family="Times,serif" font-size="14.00" fill="#000000">Make async closure function to await all of the functions</text>
</g>
<!-- add_the_functions_to_a_list&#45;&gt;make_func_to_await_the_funcs -->
<g id="edge12" class="edge">
<title>add_the_functions_to_a_list&#45;&gt;make_func_to_await_the_funcs</title>
<path fill="none" stroke="#000000" d="M905.8202,-1258.9551C902.9957,-1250.7074 899.5868,-1240.7536 896.4507,-1231.5962"/>
<polygon fill="#000000" stroke="#000000" points="899.7465,-1230.417 893.1953,-1222.0904 893.1241,-1232.685 899.7465,-1230.417"/>
</g>
<!-- add_awaiting_func_to_task_list -->
<g id="node16" class="node">
<title>add_awaiting_func_to_task_list</title>
<path fill="none" stroke="#000000" d="M986.5,-1149C986.5,-1149 771.5,-1149 771.5,-1149 765.5,-1149 759.5,-1143 759.5,-1137 759.5,-1137 759.5,-1125 759.5,-1125 759.5,-1119 765.5,-1113 771.5,-1113 771.5,-1113 986.5,-1113 986.5,-1113 992.5,-1113 998.5,-1119 998.5,-1125 998.5,-1125 998.5,-1137 998.5,-1137 998.5,-1143 992.5,-1149 986.5,-1149"/>
<text text-anchor="middle" x="879" y="-1127.3" font-family="Times,serif" font-size="14.00" fill="#000000">Add the awaiting function to the task list</text>
</g>
<!-- make_func_to_await_the_funcs&#45;&gt;add_awaiting_func_to_task_list -->
<g id="edge13" class="edge">
<title>make_func_to_await_the_funcs&#45;&gt;add_awaiting_func_to_task_list</title>
<path fill="none" stroke="#000000" d="M885.0225,-1185.9551C884.1378,-1177.8828 883.0741,-1168.1764 882.0884,-1159.1817"/>
<polygon fill="#000000" stroke="#000000" points="885.5511,-1158.6495 880.9825,-1149.0904 878.5928,-1159.4122 885.5511,-1158.6495"/>
</g>
<!-- await_all_remote_int_tasks -->
<g id="node19" class="node">
<title>await_all_remote_int_tasks</title>
<path fill="none" stroke="#000000" d="M941,-1046C941,-1046 775,-1046 775,-1046 769,-1046 763,-1040 763,-1034 763,-1034 763,-1022 763,-1022 763,-1016 769,-1010 775,-1010 775,-1010 941,-1010 941,-1010 947,-1010 953,-1016 953,-1022 953,-1022 953,-1034 953,-1034 953,-1040 947,-1046 941,-1046"/>
<text text-anchor="middle" x="858" y="-1024.3" font-family="Times,serif" font-size="14.00" fill="#000000">Await all remote interrupt tasks</text>
</g>
<!-- add_awaiting_func_to_task_list&#45;&gt;await_all_remote_int_tasks -->
<g id="edge14" class="edge">
<title>add_awaiting_func_to_task_list&#45;&gt;await_all_remote_int_tasks</title>
<path fill="none" stroke="#000000" d="M875.2456,-1112.5857C872.0503,-1096.9135 867.4097,-1074.1524 863.7471,-1056.188"/>
<polygon fill="#000000" stroke="#000000" points="867.1491,-1055.3541 861.7219,-1046.2549 860.2902,-1056.7526 867.1491,-1055.3541"/>
</g>
<!-- call_modules_to_get_int_values -->
<g id="node17" class="node">
<title>call_modules_to_get_int_values</title>
<path fill="none" stroke="#000000" d="M1278.5,-943C1278.5,-943 989.5,-943 989.5,-943 983.5,-943 977.5,-937 977.5,-931 977.5,-931 977.5,-919 977.5,-919 977.5,-913 983.5,-907 989.5,-907 989.5,-907 1278.5,-907 1278.5,-907 1284.5,-907 1290.5,-913 1290.5,-919 1290.5,-919 1290.5,-931 1290.5,-931 1290.5,-937 1284.5,-943 1278.5,-943"/>
<text text-anchor="middle" x="1134" y="-921.3" font-family="Times,serif" font-size="14.00" fill="#000000">Call get_interrupt_values_remote(pins) on the module</text>
</g>
<!-- q_can_identify_pin -->
<g id="node21" class="node">
<title>q_can_identify_pin</title>
<path fill="none" stroke="#000000" d="M1570.1271,-838.258C1570.1271,-838.258 1334.8729,-803.742 1334.8729,-803.742 1328.9364,-802.871 1328.9364,-801.129 1334.8729,-800.258 1334.8729,-800.258 1570.1271,-765.742 1570.1271,-765.742 1576.0636,-764.871 1587.9364,-764.871 1593.8729,-765.742 1593.8729,-765.742 1829.1271,-800.258 1829.1271,-800.258 1835.0636,-801.129 1835.0636,-802.871 1829.1271,-803.742 1829.1271,-803.742 1593.8729,-838.258 1593.8729,-838.258 1587.9364,-839.129 1576.0636,-839.129 1570.1271,-838.258"/>
<text text-anchor="middle" x="1582" y="-805.8" font-family="Times,serif" font-size="14.00" fill="#000000">Can identify which pin caused the interrupt?</text>
<text text-anchor="middle" x="1582" y="-790.8" font-family="Times,serif" font-size="14.00" fill="#000000">(InterruptSupport.FLAG_REGISTER)</text>
</g>
<!-- call_modules_to_get_int_values&#45;&gt;q_can_identify_pin -->
<g id="edge16" class="edge">
<title>call_modules_to_get_int_values&#45;&gt;q_can_identify_pin</title>
<path fill="none" stroke="#000000" d="M1199.6228,-906.983C1273.9244,-886.5833 1395.8249,-853.115 1481.9901,-829.4581"/>
<polygon fill="#000000" stroke="#000000" points="1483.072,-832.7906 1491.7885,-826.7679 1481.2186,-826.0404 1483.072,-832.7906"/>
</g>
<!-- fire_digital_input_changed_event_closure -->
<g id="node18" class="node">
<title>fire_digital_input_changed_event_closure</title>
<polygon fill="#d3d3d3" stroke="#000000" stroke-width=".5" points="1040,-97 1228,-97 1228,-133 1040,-133 1040,-97"/>
<polygon fill="none" stroke="#000000" points="1228,-133 1040,-133 1040,-97 1228,-97 1228,-133"/>
<text text-anchor="middle" x="1134" y="-111.3" font-family="Times,serif" font-size="14.00" fill="#000000">Fire DigitalInputChangedEvent</text>
</g>
<!-- release_int_lock -->
<g id="node20" class="node">
<title>release_int_lock</title>
<polygon fill="#d3d3d3" stroke="#000000" stroke-width=".5" points="817,-24 953,-24 953,-60 817,-60 817,-24"/>
<polygon fill="none" stroke="#000000" points="953,-60 817,-60 817,-24 953,-24 953,-60"/>
<text text-anchor="middle" x="885" y="-38.3" font-family="Times,serif" font-size="14.00" fill="#000000">Release interrupt lock</text>
</g>
<!-- fire_digital_input_changed_event_closure&#45;&gt;release_int_lock -->
<g id="edge35" class="edge">
<title>fire_digital_input_changed_event_closure&#45;&gt;release_int_lock</title>
<path fill="none" stroke="#000000" d="M1072.4494,-96.9551C1037.2837,-86.6454 993.0253,-73.6701 956.3454,-62.9165"/>
<polygon fill="#000000" stroke="#000000" points="957.2863,-59.5451 946.7055,-60.0904 955.3169,-66.2624 957.2863,-59.5451"/>
</g>
<!-- await_all_remote_int_tasks&#45;&gt;call_modules_to_get_int_values -->
<g id="edge15" class="edge">
<title>await_all_remote_int_tasks&#45;&gt;call_modules_to_get_int_values</title>
<path fill="none" stroke="#000000" d="M906.3914,-1009.9409C953.7397,-992.2711 1025.8829,-965.3481 1076.2166,-946.5641"/>
<polygon fill="#000000" stroke="#000000" points="1077.5191,-949.8139 1085.6642,-943.0384 1075.0716,-943.2557 1077.5191,-949.8139"/>
</g>
<!-- check_all_possible_pins -->
<g id="node25" class="node">
<title>check_all_possible_pins</title>
<path fill="none" stroke="#000000" d="M1612,-713C1612,-713 1432,-713 1432,-713 1426,-713 1420,-707 1420,-701 1420,-701 1420,-687 1420,-687 1420,-681 1426,-675 1432,-675 1432,-675 1612,-675 1612,-675 1618,-675 1624,-681 1624,-687 1624,-687 1624,-701 1624,-701 1624,-707 1618,-713 1612,-713"/>
<text text-anchor="middle" x="1522" y="-697.8" font-family="Times,serif" font-size="14.00" fill="#000000">Check all pins on this module that</text>
<text text-anchor="middle" x="1522" y="-682.8" font-family="Times,serif" font-size="14.00" fill="#000000">could have triggered the interrupt</text>
</g>
<!-- q_can_identify_pin&#45;&gt;check_all_possible_pins -->
<g id="edge20" class="edge">
<title>q_can_identify_pin&#45;&gt;check_all_possible_pins</title>
<path fill="none" stroke="#000000" d="M1562.3538,-766.6368C1554.3008,-752.1415 1545.1134,-735.6042 1537.5413,-721.9743"/>
<polygon fill="#000000" stroke="#000000" points="1540.5069,-720.1053 1532.5908,-713.0635 1534.3878,-723.5049 1540.5069,-720.1053"/>
<text text-anchor="middle" x="1558.5" y="-734.8" font-family="Times,serif" font-size="14.00" fill="#000000">No</text>
</g>
<!-- get_flagged_pins -->
<g id="node27" class="node">
<title>get_flagged_pins</title>
<path fill="none" stroke="#000000" d="M1805.5,-712C1805.5,-712 1654.5,-712 1654.5,-712 1648.5,-712 1642.5,-706 1642.5,-700 1642.5,-700 1642.5,-688 1642.5,-688 1642.5,-682 1648.5,-676 1654.5,-676 1654.5,-676 1805.5,-676 1805.5,-676 1811.5,-676 1817.5,-682 1817.5,-688 1817.5,-688 1817.5,-700 1817.5,-700 1817.5,-706 1811.5,-712 1805.5,-712"/>
<text text-anchor="start" x="1650.5" y="-697.8" font-family="Times,serif" font-weight="bold" font-size="14.00" fill="#000000">gpio_module.get_int_pins()</text>
<text text-anchor="start" x="1659.5" y="-683.8" font-family="Times,serif" font-size="14.00" fill="#000000">Get flagged interrupt pins</text>
</g>
<!-- q_can_identify_pin&#45;&gt;get_flagged_pins -->
<g id="edge19" class="edge">
<title>q_can_identify_pin&#45;&gt;get_flagged_pins</title>
<path fill="none" stroke="#000000" d="M1625.6044,-770.1806C1648.3865,-753.5558 1675.8207,-733.5362 1696.8475,-718.1924"/>
<polygon fill="#000000" stroke="#000000" points="1699.1299,-720.8597 1705.1447,-712.1376 1695.0036,-715.2051 1699.1299,-720.8597"/>
<text text-anchor="middle" x="1688" y="-734.8" font-family="Times,serif" font-size="14.00" fill="#000000">Yes</text>
</g>
<!-- q_can_capture_pin_val -->
<g id="node22" class="node">
<title>q_can_capture_pin_val</title>
<path fill="none" stroke="#000000" d="M1637.1341,-636.2107C1637.1341,-636.2107 1408.8659,-601.7893 1408.8659,-601.7893 1402.9329,-600.8946 1402.9329,-599.1054 1408.8659,-598.2107 1408.8659,-598.2107 1637.1341,-563.7893 1637.1341,-563.7893 1643.0671,-562.8946 1654.9329,-562.8946 1660.8659,-563.7893 1660.8659,-563.7893 1889.1341,-598.2107 1889.1341,-598.2107 1895.0671,-599.1054 1895.0671,-600.8946 1889.1341,-601.7893 1889.1341,-601.7893 1660.8659,-636.2107 1660.8659,-636.2107 1654.9329,-637.1054 1643.0671,-637.1054 1637.1341,-636.2107"/>
<text text-anchor="middle" x="1649" y="-603.8" font-family="Times,serif" font-size="14.00" fill="#000000">Can get captured pin interrupt value?</text>
<text text-anchor="middle" x="1649" y="-588.8" font-family="Times,serif" font-size="14.00" fill="#000000">(InterruptSupport.CAPTURE_REGISTER)</text>
</g>
<!-- q_which_edge -->
<g id="node23" class="node">
<title>q_which_edge</title>
<path fill="none" stroke="#000000" d="M1597.0237,-510.2455C1597.0237,-510.2455 1335.2604,-493.7545 1335.2604,-493.7545 1329.2722,-493.3772 1329.2722,-492.6228 1335.2604,-492.2455 1335.2604,-492.2455 1597.0237,-475.7545 1597.0237,-475.7545 1603.0119,-475.3772 1614.9881,-475.3772 1620.9763,-475.7545 1620.9763,-475.7545 1882.7396,-492.2455 1882.7396,-492.2455 1888.7278,-492.6228 1888.7278,-493.3772 1882.7396,-493.7545 1882.7396,-493.7545 1620.9763,-510.2455 1620.9763,-510.2455 1614.9881,-510.6228 1603.0119,-510.6228 1597.0237,-510.2455"/>
<text text-anchor="middle" x="1609" y="-489.3" font-family="Times,serif" font-size="14.00" fill="#000000">Which edge(s) were these interrupt(s) configured for?</text>
</g>
<!-- q_can_capture_pin_val&#45;&gt;q_which_edge -->
<g id="edge26" class="edge">
<title>q_can_capture_pin_val&#45;&gt;q_which_edge</title>
<path fill="none" stroke="#000000" d="M1635.4578,-563.7747C1630.1479,-549.5707 1624.1577,-533.5468 1619.2215,-520.3426"/>
<polygon fill="#000000" stroke="#000000" points="1622.4611,-519.013 1615.681,-510.8717 1615.9043,-521.4642 1622.4611,-519.013"/>
<text text-anchor="middle" x="1635.5" y="-532.8" font-family="Times,serif" font-size="14.00" fill="#000000">No</text>
</g>
<!-- capture_pin_value -->
<g id="node28" class="node">
<title>capture_pin_value</title>
<path fill="none" stroke="#000000" d="M1902.5,-457C1902.5,-457 1631.5,-457 1631.5,-457 1625.5,-457 1619.5,-451 1619.5,-445 1619.5,-445 1619.5,-433 1619.5,-433 1619.5,-427 1625.5,-421 1631.5,-421 1631.5,-421 1902.5,-421 1902.5,-421 1908.5,-421 1914.5,-427 1914.5,-433 1914.5,-433 1914.5,-445 1914.5,-445 1914.5,-451 1908.5,-457 1902.5,-457"/>
<text text-anchor="start" x="1627.5" y="-442.8" font-family="Times,serif" font-weight="bold" font-size="14.00" fill="#000000">gpio_module.get_captured_int_pin_values(pins)</text>
<text text-anchor="start" x="1651" y="-428.8" font-family="Times,serif" font-size="14.00" fill="#000000">Get captured pin value at time of interrupt</text>
</g>
<!-- q_can_capture_pin_val&#45;&gt;capture_pin_value -->
<g id="edge25" class="edge">
<title>q_can_capture_pin_val&#45;&gt;capture_pin_value</title>
<path fill="none" stroke="#000000" d="M1674.314,-565.4615C1696.3122,-535.447 1727.7062,-492.6127 1747.7184,-465.308"/>
<polygon fill="#000000" stroke="#000000" points="1750.7011,-467.1591 1753.7896,-457.0244 1745.0551,-463.021 1750.7011,-467.1591"/>
<text text-anchor="middle" x="1711" y="-532.8" font-family="Times,serif" font-size="14.00" fill="#000000">Yes</text>
</g>
<!-- poll_pin -->
<g id="node26" class="node">
<title>poll_pin</title>
<path fill="none" stroke="#000000" d="M1587.5,-403C1587.5,-403 1420.5,-403 1420.5,-403 1414.5,-403 1408.5,-397 1408.5,-391 1408.5,-391 1408.5,-379 1408.5,-379 1408.5,-373 1414.5,-367 1420.5,-367 1420.5,-367 1587.5,-367 1587.5,-367 1593.5,-367 1599.5,-373 1599.5,-379 1599.5,-379 1599.5,-391 1599.5,-391 1599.5,-397 1593.5,-403 1587.5,-403"/>
<text text-anchor="middle" x="1504" y="-381.3" font-family="Times,serif" font-size="14.00" fill="#000000">Poll the pin for its current value</text>
</g>
<!-- q_which_edge&#45;&gt;poll_pin -->
<g id="edge30" class="edge">
<title>q_which_edge&#45;&gt;poll_pin</title>
<path fill="none" stroke="#000000" d="M1592.1299,-475.6479C1574.9611,-457.9885 1548.1665,-430.4284 1528.6268,-410.3304"/>
<polygon fill="#000000" stroke="#000000" points="1531.0088,-407.7595 1521.5284,-403.0293 1525.9898,-412.639 1531.0088,-407.7595"/>
<text text-anchor="middle" x="1585.5" y="-435.3" font-family="Times,serif" font-size="14.00" fill="#000000">Both</text>
</g>
<!-- pin_value_high -->
<g id="node29" class="node">
<title>pin_value_high</title>
<path fill="none" stroke="#000000" d="M1437,-349C1437,-349 1341,-349 1341,-349 1335,-349 1329,-343 1329,-337 1329,-337 1329,-325 1329,-325 1329,-319 1335,-313 1341,-313 1341,-313 1437,-313 1437,-313 1443,-313 1449,-319 1449,-325 1449,-325 1449,-337 1449,-337 1449,-343 1443,-349 1437,-349"/>
<text text-anchor="middle" x="1389" y="-327.3" font-family="Times,serif" font-size="14.00" fill="#000000">Pin&#39;s value is &#39;high&#39;</text>
</g>
<!-- q_which_edge&#45;&gt;pin_value_high -->
<g id="edge28" class="edge">
<title>q_which_edge&#45;&gt;pin_value_high</title>
<path fill="none" stroke="#000000" d="M1586.2848,-476.2733C1547.1957,-447.4896 1467.0655,-388.4846 1421.879,-355.2109"/>
<polygon fill="#000000" stroke="#000000" points="1423.7258,-352.2243 1413.5981,-349.1131 1419.5752,-357.861 1423.7258,-352.2243"/>
<text text-anchor="middle" x="1575" y="-435.3" font-family="Times,serif" font-size="14.00" fill="#000000">Rising</text>
</g>
<!-- pin_value_low -->
<g id="node30" class="node">
<title>pin_value_low</title>
<path fill="none" stroke="#000000" d="M1691,-349C1691,-349 1599,-349 1599,-349 1593,-349 1587,-343 1587,-337 1587,-337 1587,-325 1587,-325 1587,-319 1593,-313 1599,-313 1599,-313 1691,-313 1691,-313 1697,-313 1703,-319 1703,-325 1703,-325 1703,-337 1703,-337 1703,-343 1697,-349 1691,-349"/>
<text text-anchor="middle" x="1645" y="-327.3" font-family="Times,serif" font-size="14.00" fill="#000000">Pin&#39;s value is &#39;low&#39;</text>
</g>
<!-- q_which_edge&#45;&gt;pin_value_low -->
<g id="edge29" class="edge">
<title>q_which_edge&#45;&gt;pin_value_low</title>
<path fill="none" stroke="#000000" d="M1612.9902,-475.0442C1619.2343,-446.9455 1631.365,-392.3577 1638.768,-359.0442"/>
<polygon fill="#000000" stroke="#000000" points="1642.2392,-359.5574 1640.9919,-349.0362 1635.4059,-358.0388 1642.2392,-359.5574"/>
<text text-anchor="middle" x="1643.5" y="-435.3" font-family="Times,serif" font-size="14.00" fill="#000000">Falling</text>
</g>
<!-- q_any_pins_changed -->
<g id="node24" class="node">
<title>q_any_pins_changed</title>
<path fill="none" stroke="#000000" d="M1522.1209,-293.301C1522.1209,-293.301 1420.03,-278.699 1420.03,-278.699 1414.0904,-277.8495 1414.0904,-276.1505 1420.03,-275.301 1420.03,-275.301 1522.1209,-260.699 1522.1209,-260.699 1528.0604,-259.8495 1539.9396,-259.8495 1545.8791,-260.699 1545.8791,-260.699 1647.97,-275.301 1647.97,-275.301 1653.9096,-276.1505 1653.9096,-277.8495 1647.97,-278.699 1647.97,-278.699 1545.8791,-293.301 1545.8791,-293.301 1539.9396,-294.1505 1528.0604,-294.1505 1522.1209,-293.301"/>
<text text-anchor="middle" x="1534" y="-273.3" font-family="Times,serif" font-size="14.00" fill="#000000">Pin(s) value changed?</text>
</g>
<!-- return_pin_values -->
<g id="node31" class="node">
<title>return_pin_values</title>
<polygon fill="#d3d3d3" stroke="#000000" stroke-width=".5" points="1587.5,-171 1802.5,-171 1802.5,-207 1587.5,-207 1587.5,-171"/>
<polygon fill="none" stroke="#000000" points="1802.5,-207 1587.5,-207 1587.5,-171 1802.5,-171 1802.5,-207"/>
<text text-anchor="middle" x="1695" y="-185.3" font-family="Times,serif" font-size="14.00" fill="#000000">Return pin numbers and their values</text>
</g>
<!-- q_any_pins_changed&#45;&gt;return_pin_values -->
<g id="edge23" class="edge">
<title>q_any_pins_changed&#45;&gt;return_pin_values</title>
<path fill="none" stroke="#000000" d="M1560.2258,-262.6654C1585.3392,-248.9388 1623.6437,-228.0022 1653.0067,-211.9529"/>
<polygon fill="#000000" stroke="#000000" points="1654.7116,-215.0098 1661.8077,-207.1424 1651.3542,-208.8674 1654.7116,-215.0098"/>
<text text-anchor="middle" x="1635" y="-229.8" font-family="Times,serif" font-size="14.00" fill="#000000">Yes</text>
</g>
<!-- do_nothing -->
<g id="node32" class="node">
<title>do_nothing</title>
<polygon fill="#d3d3d3" stroke="#000000" stroke-width=".5" points="1323,-170 1569,-170 1569,-208 1323,-208 1323,-170"/>
<polygon fill="none" stroke="#000000" points="1569,-208 1323,-208 1323,-170 1569,-170 1569,-208"/>
<text text-anchor="middle" x="1446" y="-192.8" font-family="Times,serif" font-size="14.00" fill="#000000">Return empty list?</text>
<text text-anchor="middle" x="1446" y="-177.8" font-family="Times,serif" font-size="14.00" fill="#000000">TODO: Make this behaviour configurable</text>
</g>
<!-- q_any_pins_changed&#45;&gt;do_nothing -->
<g id="edge24" class="edge">
<title>q_any_pins_changed&#45;&gt;do_nothing</title>
<path fill="none" stroke="#000000" d="M1517.8594,-260.8594C1505.1834,-248.1834 1487.2667,-230.2667 1472.495,-215.495"/>
<polygon fill="#000000" stroke="#000000" points="1474.6474,-212.6977 1465.1015,-208.1015 1469.6977,-217.6474 1474.6474,-212.6977"/>
<text text-anchor="middle" x="1505.5" y="-229.8" font-family="Times,serif" font-size="14.00" fill="#000000">No</text>
</g>
<!-- check_all_possible_pins&#45;&gt;q_can_capture_pin_val -->
<g id="edge22" class="edge">
<title>check_all_possible_pins&#45;&gt;q_can_capture_pin_val</title>
<path fill="none" stroke="#000000" d="M1569.3548,-674.9553C1579.5885,-669.8454 1590.0222,-663.8156 1599,-657 1604.9107,-652.5129 1610.6429,-647.2378 1615.9885,-641.7395"/>
<polygon fill="#000000" stroke="#000000" points="1618.7868,-643.8692 1623.0189,-634.1563 1613.6535,-639.1101 1618.7868,-643.8692"/>
</g>
<!-- poll_pin&#45;&gt;q_any_pins_changed -->
<g id="edge31" class="edge">
<title>poll_pin&#45;&gt;q_any_pins_changed</title>
<path fill="none" stroke="#000000" d="M1509.0891,-366.6793C1513.8503,-349.5389 1521.0229,-323.7175 1526.4508,-304.1772"/>
<polygon fill="#000000" stroke="#000000" points="1529.8799,-304.909 1529.1841,-294.3371 1523.1353,-303.0355 1529.8799,-304.909"/>
</g>
<!-- get_flagged_pins&#45;&gt;q_can_capture_pin_val -->
<g id="edge21" class="edge">
<title>get_flagged_pins&#45;&gt;q_can_capture_pin_val</title>
<path fill="none" stroke="#000000" d="M1714.3824,-675.8759C1705.935,-666.0728 1695.1297,-653.5333 1684.747,-641.4841"/>
<polygon fill="#000000" stroke="#000000" points="1687.1933,-638.9614 1678.0141,-633.6707 1681.8905,-643.5309 1687.1933,-638.9614"/>
</g>
<!-- capture_pin_value&#45;&gt;return_pin_values -->
<g id="edge27" class="edge">
<title>capture_pin_value&#45;&gt;return_pin_values</title>
<path fill="none" stroke="#000000" d="M1761.7057,-420.6169C1749.2185,-377.2586 1717.8653,-268.3934 1703.0254,-216.866"/>
<polygon fill="#000000" stroke="#000000" points="1706.3359,-215.7136 1700.205,-207.0729 1699.6093,-217.6509 1706.3359,-215.7136"/>
</g>
<!-- pin_value_high&#45;&gt;return_pin_values -->
<g id="edge32" class="edge">
<title>pin_value_high&#45;&gt;return_pin_values</title>
<path fill="none" stroke="#000000" d="M1428.0659,-312.8714C1483.8886,-286.9667 1586.3934,-239.3992 1646.8401,-211.3487"/>
<polygon fill="#000000" stroke="#000000" points="1648.5691,-214.4049 1656.1667,-207.0207 1645.6225,-208.0553 1648.5691,-214.4049"/>
</g>
<!-- pin_value_low&#45;&gt;return_pin_values -->
<g id="edge33" class="edge">
<title>pin_value_low&#45;&gt;return_pin_values</title>
<path fill="none" stroke="#000000" d="M1666.8018,-312.9875C1671.8994,-307.7101 1676.7759,-301.5742 1680,-295 1691.9558,-270.6207 1695.1509,-239.5454 1695.6907,-217.3564"/>
<polygon fill="#000000" stroke="#000000" points="1699.1913,-217.2726 1695.7691,-207.2457 1692.1915,-217.2182 1699.1913,-217.2726"/>
</g>
<!-- return_pin_values&#45;&gt;fire_digital_input_changed_event_closure -->
<g id="edge34" class="edge">
<title>return_pin_values&#45;&gt;fire_digital_input_changed_event_closure</title>
<path fill="none" stroke="#000000" d="M1587.4973,-174.8196C1486.9147,-161.552 1337.6425,-141.8619 1238.1575,-128.7391"/>
<polygon fill="#000000" stroke="#000000" points="1238.4596,-125.2487 1228.0877,-127.4109 1237.5441,-132.1886 1238.4596,-125.2487"/>
</g>
</g>
</svg>
